<svg width="277" height="230" viewBox="0 0 277 230" fill="none" xmlns="http://www.w3.org/2000/svg">
<mask id="path-1-outside-1_712_2475" maskUnits="userSpaceOnUse" x="-2.64315" y="-3.66477" width="285.965" height="236.672" fill="black">
<rect fill="white" x="-2.64315" y="-3.66477" width="285.965" height="236.672"/>
<path fill-rule="evenodd" clip-rule="evenodd" d="M116.123 91.0447C114.06 50.4539 145.192 15.862 185.696 13.7389L185.815 13.7327L185.973 13.7249C226.471 11.7522 260.923 43.0024 262.986 83.5849C263.015 84.1559 263.036 84.7289 263.049 85.304C263.311 94.758 261.773 103.864 258.74 112.281C243.874 159.922 195.776 209.721 195.776 209.721L195.776 209.716C195.776 209.716 142.927 165.096 123.285 119.23C119.392 111.134 116.926 102.194 116.232 92.7213C116.188 92.1613 116.152 91.6024 116.123 91.0447ZM54.2112 110.66L98.1561 108.427C101.689 108.247 103.94 105.322 102.445 102.858L77.8627 62.33C75.9931 59.2457 70.204 59.5787 68.7205 62.8528L49.3534 105.615C48.1789 108.209 50.7124 110.838 54.2112 110.66ZM161.251 209.566L117.306 211.8C113.807 211.978 111.274 209.349 112.448 206.755L131.816 163.993C133.299 160.719 139.088 160.386 140.958 163.47L165.54 203.998C167.035 206.461 164.784 209.387 161.251 209.566ZM37.2532 96.2022C47.8654 95.6628 54.4706 89.2058 53.92 78.3726C53.3659 67.4718 46.0656 61.5859 35.3858 62.1287L16.4923 63.089C14.3013 63.2004 13.5868 63.9928 13.6949 66.1198L15.8768 109.046C15.9849 111.173 16.7761 111.889 18.9671 111.778L26.6982 111.385C28.8892 111.274 29.5361 110.485 29.428 108.358L28.8319 96.6302L37.2532 96.2022ZM29.9225 117.992L31.6408 151.797L48.1406 150.958C50.264 150.85 51.0518 151.498 51.1633 153.693L51.4805 159.934C51.5886 162.061 50.8741 162.853 48.7507 162.961L21.6386 164.339C19.4476 164.45 18.6565 163.735 18.5484 161.608L16.3665 118.681C16.2584 116.554 16.9729 115.761 19.1639 115.65L26.8998 115.257C29.0908 115.146 29.8144 115.865 29.9225 117.992ZM64.1415 113.364L56.0629 113.775C54.0119 113.879 53.3613 114.595 53.4659 116.655L55.6618 159.857C55.7662 161.911 56.4816 162.563 58.5374 162.459L66.6161 162.048C68.6671 161.944 69.3177 161.227 69.213 159.168L67.0172 115.966C66.9127 113.911 66.1974 113.259 64.1415 113.364ZM59.5946 168.502L61.7764 211.429C61.8845 213.556 61.17 214.348 59.0466 214.456L51.3106 214.849C49.8725 214.922 49.0988 214.55 48.4322 213.619L37.0614 197.903C33.8095 193.323 32.4826 190.158 30.3207 184.084L29.7754 184.111L29.946 184.737C31.6125 190.851 32.5588 194.323 32.9332 201.689L33.5013 212.866C33.6094 214.993 32.8949 215.785 30.7039 215.897L23.7932 216.248C21.6022 216.359 20.811 215.643 20.7029 213.516L18.5211 170.59C18.4129 168.463 19.1275 167.67 21.3184 167.559L29.397 167.148C30.9703 167.068 31.6765 167.444 32.3431 168.375L44.4606 185.362C46.8058 188.664 47.8148 190.926 49.1162 193.843L49.1163 193.843C49.6194 194.971 50.1663 196.197 50.851 197.619L51.3963 197.591C48.8463 190.64 47.791 187.393 47.4355 180.398L46.864 169.154C46.7559 167.027 47.4028 166.238 49.5938 166.127L56.5769 165.772C58.7003 165.664 59.4915 166.38 59.5996 168.507L59.5946 168.502ZM109.017 209.027L106.836 166.101C106.724 163.906 105.933 163.19 103.809 163.298L96.0059 163.695C93.8825 163.803 93.168 164.595 93.2796 166.79L94.0499 181.945L80.7689 182.62L79.9986 167.465C79.887 165.27 79.1634 164.551 76.9725 164.662L69.2365 165.055C67.0455 165.167 66.331 165.959 66.4426 168.154L68.6244 211.081C68.7325 213.208 69.5237 213.923 71.7147 213.812L79.4507 213.419C81.6416 213.308 82.2886 212.519 82.1805 210.392L81.3787 194.618L94.6597 193.943L95.4614 209.717C95.5695 211.844 96.3607 212.559 98.4841 212.451L106.288 212.055C108.411 211.947 109.126 211.154 109.017 209.027Z"/>
</mask>
<path fill-rule="evenodd" clip-rule="evenodd" d="M116.123 91.0447C114.06 50.4539 145.192 15.862 185.696 13.7389L185.815 13.7327L185.973 13.7249C226.471 11.7522 260.923 43.0024 262.986 83.5849C263.015 84.1559 263.036 84.7289 263.049 85.304C263.311 94.758 261.773 103.864 258.74 112.281C243.874 159.922 195.776 209.721 195.776 209.721L195.776 209.716C195.776 209.716 142.927 165.096 123.285 119.23C119.392 111.134 116.926 102.194 116.232 92.7213C116.188 92.1613 116.152 91.6024 116.123 91.0447ZM54.2112 110.66L98.1561 108.427C101.689 108.247 103.94 105.322 102.445 102.858L77.8627 62.33C75.9931 59.2457 70.204 59.5787 68.7205 62.8528L49.3534 105.615C48.1789 108.209 50.7124 110.838 54.2112 110.66ZM161.251 209.566L117.306 211.8C113.807 211.978 111.274 209.349 112.448 206.755L131.816 163.993C133.299 160.719 139.088 160.386 140.958 163.47L165.54 203.998C167.035 206.461 164.784 209.387 161.251 209.566ZM37.2532 96.2022C47.8654 95.6628 54.4706 89.2058 53.92 78.3726C53.3659 67.4718 46.0656 61.5859 35.3858 62.1287L16.4923 63.089C14.3013 63.2004 13.5868 63.9928 13.6949 66.1198L15.8768 109.046C15.9849 111.173 16.7761 111.889 18.9671 111.778L26.6982 111.385C28.8892 111.274 29.5361 110.485 29.428 108.358L28.8319 96.6302L37.2532 96.2022ZM29.9225 117.992L31.6408 151.797L48.1406 150.958C50.264 150.85 51.0518 151.498 51.1633 153.693L51.4805 159.934C51.5886 162.061 50.8741 162.853 48.7507 162.961L21.6386 164.339C19.4476 164.45 18.6565 163.735 18.5484 161.608L16.3665 118.681C16.2584 116.554 16.9729 115.761 19.1639 115.65L26.8998 115.257C29.0908 115.146 29.8144 115.865 29.9225 117.992ZM64.1415 113.364L56.0629 113.775C54.0119 113.879 53.3613 114.595 53.4659 116.655L55.6618 159.857C55.7662 161.911 56.4816 162.563 58.5374 162.459L66.6161 162.048C68.6671 161.944 69.3177 161.227 69.213 159.168L67.0172 115.966C66.9127 113.911 66.1974 113.259 64.1415 113.364ZM59.5946 168.502L61.7764 211.429C61.8845 213.556 61.17 214.348 59.0466 214.456L51.3106 214.849C49.8725 214.922 49.0988 214.55 48.4322 213.619L37.0614 197.903C33.8095 193.323 32.4826 190.158 30.3207 184.084L29.7754 184.111L29.946 184.737C31.6125 190.851 32.5588 194.323 32.9332 201.689L33.5013 212.866C33.6094 214.993 32.8949 215.785 30.7039 215.897L23.7932 216.248C21.6022 216.359 20.811 215.643 20.7029 213.516L18.5211 170.59C18.4129 168.463 19.1275 167.67 21.3184 167.559L29.397 167.148C30.9703 167.068 31.6765 167.444 32.3431 168.375L44.4606 185.362C46.8058 188.664 47.8148 190.926 49.1162 193.843L49.1163 193.843C49.6194 194.971 50.1663 196.197 50.851 197.619L51.3963 197.591C48.8463 190.64 47.791 187.393 47.4355 180.398L46.864 169.154C46.7559 167.027 47.4028 166.238 49.5938 166.127L56.5769 165.772C58.7003 165.664 59.4915 166.38 59.5996 168.507L59.5946 168.502ZM109.017 209.027L106.836 166.101C106.724 163.906 105.933 163.19 103.809 163.298L96.0059 163.695C93.8825 163.803 93.168 164.595 93.2796 166.79L94.0499 181.945L80.7689 182.62L79.9986 167.465C79.887 165.27 79.1634 164.551 76.9725 164.662L69.2365 165.055C67.0455 165.167 66.331 165.959 66.4426 168.154L68.6244 211.081C68.7325 213.208 69.5237 213.923 71.7147 213.812L79.4507 213.419C81.6416 213.308 82.2886 212.519 82.1805 210.392L81.3787 194.618L94.6597 193.943L95.4614 209.717C95.5695 211.844 96.3607 212.559 98.4841 212.451L106.288 212.055C108.411 211.947 109.126 211.154 109.017 209.027Z" fill="#D9D9D9" fill-opacity="0.13"/>
<path d="M185.696 13.7389L185.026 0.756148L185.015 0.756687L185.696 13.7389ZM185.815 13.7327L185.168 0.748803C185.16 0.749201 185.152 0.749608 185.144 0.75002L185.815 13.7327ZM185.973 13.7249L185.34 0.740244L185.327 0.740927L185.973 13.7249ZM263.049 85.304L250.052 85.5927C250.053 85.6168 250.053 85.6408 250.054 85.6648L263.049 85.304ZM258.74 112.281L246.509 107.875C246.446 108.051 246.386 108.23 246.33 108.409L258.74 112.281ZM195.776 209.721L182.793 210.381C183.056 215.554 186.364 220.076 191.214 221.894C196.063 223.712 201.529 222.478 205.127 218.752L195.776 209.721ZM195.776 209.716L208.759 209.056C208.577 205.462 206.912 202.105 204.163 199.783L195.776 209.716ZM123.285 119.23L135.236 114.112C135.161 113.938 135.083 113.766 135.001 113.595L123.285 119.23ZM116.232 92.7213L129.197 91.7712C129.196 91.7473 129.194 91.7233 129.192 91.6993L116.232 92.7213ZM98.1561 108.427L98.8161 121.41L98.1561 108.427ZM54.2112 110.66L53.5513 97.677L54.2112 110.66ZM102.445 102.858L91.3303 109.6L91.3306 109.6L102.445 102.858ZM77.8627 62.33L66.7456 69.0686L66.7476 69.072L77.8627 62.33ZM68.7205 62.8528L56.8793 57.4877L56.8784 57.4895L68.7205 62.8528ZM49.3534 105.615L37.5114 100.251L37.5104 100.253L49.3534 105.615ZM117.306 211.8L117.966 224.783L117.306 211.8ZM161.251 209.566L160.591 196.583L161.251 209.566ZM112.448 206.755L100.606 201.391L100.606 201.393L112.448 206.755ZM131.816 163.993L119.974 158.628L119.973 158.629L131.816 163.993ZM140.958 163.47L129.841 170.208L129.843 170.212L140.958 163.47ZM165.54 203.998L154.425 210.74L154.426 210.74L165.54 203.998ZM37.2532 96.2022L36.5933 83.2189L37.2532 96.2022ZM35.3858 62.1287L34.7259 49.1455L35.3858 62.1287ZM16.4923 63.089L17.1522 76.0723L16.4923 63.089ZM29.428 108.358L16.4448 109.018L29.428 108.358ZM28.8319 96.6302L28.172 83.647C21.0016 84.0114 15.4842 90.1197 15.8487 97.2901L28.8319 96.6302ZM31.6408 151.797L18.6575 152.457C19.022 159.627 25.1302 165.144 32.3007 164.78L31.6408 151.797ZM29.9225 117.992L16.9393 118.652L29.9225 117.992ZM48.1406 150.958L48.8005 163.941L48.1406 150.958ZM51.1633 153.693L38.1801 154.353L51.1633 153.693ZM51.4805 159.934L64.4638 159.274L51.4805 159.934ZM19.1639 115.65L18.504 102.667L19.1639 115.65ZM26.8998 115.257L27.5597 128.24L26.8998 115.257ZM53.4659 116.655L66.4492 115.995L53.4659 116.655ZM55.6618 159.857L42.6786 160.517L55.6618 159.857ZM58.5374 162.459L57.8775 149.475L58.5374 162.459ZM66.6161 162.048L67.276 175.031L66.6161 162.048ZM59.5946 168.502L68.297 158.844C64.393 155.327 58.755 154.505 54.0095 156.763C49.264 159.021 46.3446 163.913 46.6113 169.162L59.5946 168.502ZM48.4322 213.619L59.0004 206.049C58.9885 206.032 58.9766 206.015 58.9646 205.999L48.4322 213.619ZM37.0614 197.903L26.462 205.43C26.4842 205.461 26.5065 205.492 26.529 205.523L37.0614 197.903ZM30.3207 184.084L42.5682 179.725C40.6428 174.315 35.3959 170.809 29.6608 171.1L30.3207 184.084ZM29.7754 184.111L29.1155 171.128C25.1852 171.328 21.557 173.297 19.2481 176.484C16.9392 179.671 16.1981 183.732 17.2327 187.529L29.7754 184.111ZM29.946 184.737L17.4032 188.155L17.4035 188.156L29.946 184.737ZM20.7029 213.516L33.6862 212.856L20.7029 213.516ZM18.5211 170.59L5.53781 171.25L18.5211 170.59ZM21.3184 167.559L20.6585 154.576L21.3184 167.559ZM29.397 167.148L30.057 180.132L29.397 167.148ZM32.3431 168.375L42.9263 160.825C42.9213 160.818 42.9163 160.811 42.9113 160.805L32.3431 168.375ZM44.4606 185.362L55.0601 177.835C55.0547 177.827 55.0492 177.82 55.0438 177.812L44.4606 185.362ZM49.1162 193.843L37.2441 199.14C37.321 199.312 37.4017 199.483 37.486 199.652L49.1162 193.843ZM49.1163 193.843L60.9885 188.547C60.9115 188.375 60.8309 188.204 60.7465 188.035L49.1163 193.843ZM50.851 197.619L39.1383 203.259C41.4087 207.974 46.2847 210.868 51.5109 210.602L50.851 197.619ZM51.3963 197.591L52.0562 210.574C56.1817 210.365 59.9619 208.207 62.2402 204.761C64.5185 201.315 65.0236 196.992 63.601 193.114L51.3963 197.591ZM47.4355 180.398L34.4523 181.058L47.4355 180.398ZM46.864 169.154L59.8472 168.494L46.864 169.154ZM59.5996 168.507L50.8972 178.164C54.8012 181.682 60.4392 182.503 65.1847 180.246C69.9302 177.988 72.8496 173.095 72.5829 167.847L59.5996 168.507ZM106.836 166.101L119.819 165.441L106.836 166.101ZM109.017 209.027L96.0342 209.687L109.017 209.027ZM103.809 163.298L104.469 176.281L103.809 163.298ZM96.0059 163.695L95.346 150.712L96.0059 163.695ZM94.0499 181.945L94.7098 194.928C101.88 194.563 107.398 188.455 107.033 181.285L94.0499 181.945ZM80.7689 182.62L67.7856 183.28C68.1501 190.45 74.2583 195.967 81.4288 195.603L80.7689 182.62ZM79.9986 167.465L67.0154 168.125L79.9986 167.465ZM76.9725 164.662L77.6324 177.646L76.9725 164.662ZM69.2365 165.055L68.5766 152.072L69.2365 165.055ZM81.3787 194.618L80.7188 181.635C73.5484 181.999 68.031 188.107 68.3955 195.278L81.3787 194.618ZM94.6597 193.943L107.643 193.283C107.468 189.84 105.932 186.607 103.374 184.296C100.815 181.985 97.4432 180.785 93.9998 180.96L94.6597 193.943ZM95.4614 209.717L82.4782 210.376L95.4614 209.717ZM185.015 0.756687C137.325 3.25654 100.714 43.9764 103.14 91.7047L129.106 90.3848C127.406 56.9314 153.059 28.4675 186.376 26.721L185.015 0.756687ZM185.144 0.75002L185.026 0.756152L186.366 26.7216L186.485 26.7154L185.144 0.75002ZM185.327 0.740927L185.168 0.748803L186.461 26.7167L186.619 26.7088L185.327 0.740927ZM275.969 82.925C273.544 35.2085 233.025 -1.58245 185.34 0.740252L186.605 26.7095C219.917 25.0868 248.303 50.7963 250.003 84.2448L275.969 82.925ZM276.046 85.0153C276.03 84.3185 276.005 83.6216 275.969 82.925L250.003 84.2448C250.026 84.6901 250.042 85.1394 250.052 85.5927L276.046 85.0153ZM270.97 116.688C274.544 106.77 276.352 96.0487 276.044 84.9433L250.054 85.6648C250.27 93.4674 249.002 100.957 246.509 107.875L270.97 116.688ZM195.776 209.721C205.127 218.752 205.129 218.751 205.13 218.749C205.131 218.748 205.133 218.746 205.135 218.744C205.138 218.741 205.142 218.736 205.147 218.731C205.157 218.721 205.17 218.708 205.185 218.692C205.216 218.66 205.258 218.616 205.312 218.56C205.419 218.447 205.571 218.288 205.766 218.082C206.154 217.671 206.713 217.076 207.42 216.311C208.835 214.78 210.849 212.563 213.303 209.761C218.204 204.166 224.89 196.203 232.062 186.695C246.216 167.931 263.042 142.137 271.15 116.154L246.33 108.409C239.572 130.066 224.916 152.993 211.305 171.038C204.594 179.935 198.326 187.4 193.745 192.63C191.457 195.242 189.598 197.287 188.324 198.666C187.687 199.355 187.198 199.877 186.874 200.218C186.713 200.389 186.593 200.515 186.517 200.594C186.48 200.634 186.453 200.662 186.437 200.678C186.43 200.686 186.425 200.691 186.423 200.693C186.422 200.694 186.422 200.694 186.422 200.694C186.422 200.693 186.423 200.692 186.423 200.692C186.424 200.691 186.426 200.69 195.776 209.721ZM182.793 210.376L182.793 210.381L208.76 209.061L208.759 209.056L182.793 210.376ZM111.335 124.347C122.047 149.36 141.392 173.296 157.366 190.514C165.46 199.239 172.913 206.476 178.352 211.541C181.075 214.077 183.302 216.077 184.863 217.455C185.644 218.144 186.259 218.679 186.687 219.048C186.901 219.233 187.068 219.376 187.186 219.477C187.245 219.527 187.292 219.567 187.326 219.595C187.343 219.61 187.357 219.622 187.367 219.631C187.373 219.635 187.377 219.639 187.381 219.642C187.383 219.644 187.385 219.646 187.386 219.646C187.388 219.648 187.39 219.649 195.776 209.716C204.163 199.783 204.164 199.784 204.165 199.785C204.165 199.786 204.166 199.786 204.166 199.787C204.167 199.787 204.167 199.787 204.166 199.786C204.163 199.784 204.158 199.779 204.15 199.772C204.133 199.758 204.103 199.733 204.062 199.697C203.978 199.626 203.847 199.513 203.669 199.36C203.313 199.053 202.773 198.584 202.071 197.964C200.665 196.723 198.61 194.878 196.071 192.514C190.987 187.78 184 180.995 176.427 172.832C161.066 156.274 144.166 134.965 135.236 114.112L111.335 124.347ZM103.267 93.6714C104.082 104.799 106.982 115.325 111.57 124.864L135.001 113.595C131.801 106.943 129.77 99.5894 129.197 91.7712L103.267 93.6714ZM103.14 91.7047C103.175 92.3851 103.219 93.0647 103.272 93.7433L129.192 91.6993C129.157 91.2579 129.129 90.8198 129.106 90.3848L103.14 91.7047ZM97.4962 95.4434L53.5513 97.677L54.8711 123.643L98.8161 121.41L97.4962 95.4434ZM91.3306 109.6C90.3019 107.905 89.7559 105.788 89.9547 103.578C90.146 101.451 90.9741 99.7515 91.8856 98.5677C93.6603 96.2629 95.9343 95.5228 97.4962 95.4434L98.8161 121.41C103.911 121.151 109.076 118.858 112.486 114.43C116.129 109.699 117.456 102.537 113.56 96.1156L91.3306 109.6ZM66.7476 69.072L91.3303 109.6L113.561 96.116L88.9778 55.588L66.7476 69.072ZM80.5618 68.218C78.6506 72.4361 75.0214 73.1209 73.8908 73.1857C72.7511 73.251 69.1174 72.9816 66.7456 69.0686L88.9798 55.5914C84.7385 48.5941 77.2753 46.949 72.4029 47.2283C67.5394 47.5071 60.2739 49.9954 56.8793 57.4877L80.5618 68.218ZM61.1955 110.978L80.5626 68.2162L56.8784 57.4895L37.5114 100.251L61.1955 110.978ZM53.5513 97.677C55.0961 97.5985 57.4019 98.0913 59.3934 100.159C60.4168 101.222 61.419 102.798 61.8507 104.866C62.2993 107.016 62.0145 109.169 61.1964 110.976L37.5104 100.253C34.4336 107.05 36.5721 113.944 40.6663 118.195C44.5056 122.182 49.8276 123.9 54.8711 123.643L53.5513 97.677ZM117.966 224.783L161.911 222.55L160.591 196.583L116.646 198.817L117.966 224.783ZM100.606 201.393C97.5287 208.19 99.6671 215.084 103.761 219.335C107.601 223.321 112.923 225.04 117.966 224.783L116.646 198.817C118.191 198.738 120.497 199.231 122.488 201.299C123.512 202.362 124.514 203.938 124.946 206.006C125.394 208.155 125.11 210.309 124.291 212.116L100.606 201.393ZM119.973 158.629L100.606 201.391L124.291 212.118L143.658 169.356L119.973 158.629ZM152.075 156.731C147.834 149.734 140.37 148.089 135.498 148.368C130.634 148.647 123.369 151.135 119.974 158.628L143.657 169.358C141.746 173.576 138.116 174.261 136.986 174.326C135.846 174.391 132.212 174.121 129.841 170.208L152.075 156.731ZM176.656 197.256L152.073 156.728L129.843 170.212L154.425 210.74L176.656 197.256ZM161.911 222.55C167.006 222.291 172.172 219.998 175.581 215.57C179.224 210.839 180.551 203.677 176.655 197.255L154.426 210.74C153.397 209.045 152.851 206.928 153.05 204.718C153.241 202.591 154.069 200.891 154.981 199.707C156.755 197.403 159.029 196.663 160.591 196.583L161.911 222.55ZM40.9368 79.0325C41.0044 80.3636 40.8329 81.1633 40.6993 81.5667C40.5757 81.9402 40.4519 82.0848 40.3863 82.1533C40.3124 82.2305 39.4624 83.0731 36.5933 83.2189L37.9131 109.185C45.6562 108.792 53.4149 106.136 59.159 100.142C65.0067 94.0393 67.3235 85.98 66.9032 77.7127L40.9368 79.0325ZM36.0457 75.112C38.8969 74.967 39.8637 75.7216 39.9929 75.8323C40.0217 75.857 40.805 76.4408 40.9368 79.0325L66.9032 77.7127C66.4809 69.4036 63.337 61.594 56.9073 56.0863C50.5778 50.6645 42.5546 48.7476 34.7259 49.1455L36.0457 75.112ZM17.1522 76.0723L36.0457 75.112L34.7259 49.1455L15.8324 50.1058L17.1522 76.0723ZM26.6782 65.4599C26.685 65.5945 26.7287 66.4524 26.4495 67.67C26.1404 69.018 25.4107 70.8953 23.8053 72.643C22.2098 74.3799 20.4314 75.246 19.1884 75.656C18.0576 76.0291 17.2518 76.0672 17.1522 76.0723L15.8324 50.1058C13.9147 50.2033 8.70344 50.6498 4.65764 55.0541C0.550455 59.5253 0.612137 64.8211 0.711688 66.7797L26.6782 65.4599ZM28.86 108.387L26.6782 65.4599L0.711688 66.7797L2.89355 109.706L28.86 108.387ZM18.3071 98.7947C18.4067 98.7897 19.2123 98.7459 20.375 99.0024C21.6532 99.2843 23.5102 99.9656 25.2736 101.532C27.048 103.108 27.9642 104.901 28.4084 106.211C28.8096 107.394 28.8532 108.252 28.86 108.387L2.89355 109.706C2.99311 111.665 3.4687 116.94 8.00805 120.971C12.4796 124.943 17.7092 124.859 19.627 124.761L18.3071 98.7947ZM26.0383 98.4018L18.3071 98.7947L19.627 124.761L27.3581 124.368L26.0383 98.4018ZM16.4448 109.018C16.4418 108.959 16.3938 108.164 16.6394 107.009C16.9111 105.731 17.5852 103.825 19.1894 102.013C20.8022 100.19 22.6372 99.2717 23.9381 98.8363C25.1091 98.4444 25.9467 98.4064 26.0383 98.4018L27.3581 124.368C29.2383 124.273 34.5963 123.836 38.6612 119.242C42.6668 114.715 42.4985 109.414 42.4112 107.698L16.4448 109.018ZM15.8487 97.2901L16.4448 109.018L42.4112 107.698L41.8152 95.9703L15.8487 97.2901ZM36.5933 83.2189L28.172 83.647L29.4918 109.613L37.9131 109.185L36.5933 83.2189ZM44.624 151.137L42.9058 117.332L16.9393 118.652L18.6575 152.457L44.624 151.137ZM47.4807 137.975L30.9808 138.813L32.3007 164.78L48.8005 163.941L47.4807 137.975ZM64.1465 153.033C64.0513 151.159 63.6179 145.807 59.0375 141.741C54.5104 137.721 49.2022 137.887 47.4807 137.975L48.8005 163.941C48.7384 163.944 47.9391 163.992 46.7791 163.745C45.4945 163.47 43.5868 162.792 41.7753 161.183C39.9563 159.568 39.0432 157.734 38.6111 156.44C38.222 155.274 38.1846 154.441 38.1801 154.353L64.1465 153.033ZM64.4638 159.274L64.1465 153.033L38.1801 154.353L38.4973 160.594L64.4638 159.274ZM49.4106 175.944C51.3821 175.844 56.59 175.365 60.6069 170.91C64.6181 166.462 64.5636 161.239 64.4638 159.274L38.4973 160.594C38.4902 160.455 38.4483 159.614 38.7194 158.417C39.0177 157.1 39.7243 155.244 41.2979 153.499C42.8724 151.753 44.6486 150.857 45.9348 150.423C47.1028 150.029 47.9492 149.985 48.0908 149.978L49.4106 175.944ZM22.2985 177.322L49.4106 175.944L48.0908 149.978L20.9787 151.356L22.2985 177.322ZM5.56511 162.267C5.66466 164.226 6.14026 169.501 10.6797 173.533C15.1512 177.504 20.3808 177.42 22.2985 177.322L20.9787 151.356C21.0783 151.351 21.8838 151.307 23.0465 151.563C24.3247 151.845 26.1818 152.527 27.9452 154.093C29.7195 155.669 30.6358 157.462 31.08 158.772C31.4812 159.955 31.5248 160.813 31.5316 160.948L5.56511 162.267ZM3.38325 119.341L5.56511 162.267L31.5316 160.948L29.3497 118.021L3.38325 119.341ZM18.504 102.667C16.5862 102.764 11.375 103.211 7.32919 107.615C3.22201 112.086 3.2837 117.382 3.38325 119.341L29.3497 118.021C29.3566 118.155 29.4002 119.013 29.121 120.231C28.8119 121.579 28.0823 123.456 26.4768 125.204C24.8813 126.941 23.103 127.807 21.8599 128.217C20.7292 128.59 19.9234 128.628 19.8238 128.633L18.504 102.667ZM26.2399 102.274L18.504 102.667L19.8238 128.633L27.5597 128.24L26.2399 102.274ZM42.9058 117.332C42.8186 115.616 42.4485 110.325 38.0045 106.228C33.4949 102.069 28.1202 102.178 26.2399 102.274L27.5597 128.24C27.4681 128.245 26.631 128.292 25.4263 128.021C24.0879 127.719 22.1693 126.992 20.38 125.342C18.6003 123.701 17.7364 121.874 17.3365 120.63C16.9752 119.506 16.9423 118.711 16.9393 118.652L42.9058 117.332ZM56.7228 126.758L64.8015 126.347L63.4816 100.381L55.403 100.791L56.7228 126.758ZM66.4492 115.995C66.4542 116.094 66.5009 116.93 66.2394 118.126C65.9499 119.451 65.2433 121.379 63.6044 123.194C61.9652 125.009 60.1175 125.909 58.8265 126.332C57.661 126.714 56.8229 126.753 56.7228 126.758L55.403 100.791C53.6661 100.88 48.3712 101.269 44.3077 105.769C40.2462 110.267 40.3941 115.572 40.4827 117.314L66.4492 115.995ZM68.6451 159.197L66.4492 115.995L40.4827 117.314L42.6786 160.517L68.6451 159.197ZM57.8775 149.475C57.9798 149.47 58.8204 149.424 60.022 149.687C61.3532 149.979 63.2835 150.691 65.0967 152.334C66.9081 153.975 67.8029 155.821 68.2228 157.106C68.6021 158.267 68.6401 159.1 68.6451 159.197L42.6786 160.517C42.7666 162.248 43.1526 167.536 47.639 171.601C52.1366 175.676 57.4486 175.531 59.1973 175.442L57.8775 149.475ZM65.9561 149.065L57.8775 149.475L59.1973 175.442L67.276 175.031L65.9561 149.065ZM56.2298 159.828C56.2248 159.729 56.1781 158.893 56.4396 157.697C56.7291 156.372 57.4357 154.443 59.0746 152.629C60.7139 150.813 62.5616 149.914 63.8525 149.49C65.018 149.108 65.8562 149.07 65.9561 149.065L67.276 175.031C69.0128 174.943 74.3077 174.554 78.3712 170.054C82.4328 165.556 82.2849 160.251 82.1963 158.508L56.2298 159.828ZM54.0339 116.626L56.2298 159.828L82.1963 158.508L80.0004 115.306L54.0339 116.626ZM64.8015 126.347C64.6992 126.352 63.8586 126.399 62.657 126.135C61.3257 125.843 59.3955 125.132 57.5823 123.489C55.7708 121.848 54.8761 120.001 54.4562 118.717C54.0768 117.556 54.0389 116.723 54.0339 116.626L80.0004 115.306C79.9124 113.575 79.5264 108.287 75.04 104.222C70.5424 100.146 65.2304 100.292 63.4816 100.381L64.8015 126.347ZM74.7597 210.769L72.5778 167.842L46.6113 169.162L48.7932 212.089L74.7597 210.769ZM59.7065 227.439C61.678 227.339 66.8859 226.86 70.9028 222.405C74.914 217.957 74.8595 212.734 74.7597 210.769L48.7932 212.089C48.7862 211.95 48.7442 211.109 49.0153 209.912C49.3136 208.595 50.0203 206.739 51.5938 204.994C53.1683 203.248 54.9445 202.352 56.2307 201.918C57.3987 201.524 58.2451 201.48 58.3867 201.473L59.7065 227.439ZM51.9706 227.832L59.7065 227.439L58.3867 201.473L50.6507 201.866L51.9706 227.832ZM37.8639 221.189C39.1561 222.993 41.2102 225.133 44.358 226.515C47.3265 227.817 50.105 227.927 51.9706 227.832L50.6507 201.866C51.0781 201.844 52.7507 201.804 54.8062 202.706C57.0409 203.687 58.3749 205.175 59.0004 206.049L37.8639 221.189ZM26.529 205.523L37.8997 221.239L58.9646 205.999L47.5939 190.283L26.529 205.523ZM18.0733 188.443C20.3957 194.968 22.1985 199.425 26.462 205.43L47.6609 190.376C45.4206 187.221 44.5694 185.348 42.5682 179.725L18.0733 188.443ZM30.4353 197.095L30.9806 197.067L29.6608 171.1L29.1155 171.128L30.4353 197.095ZM42.4887 181.32L42.3181 180.694L17.2327 187.529L17.4032 188.155L42.4887 181.32ZM45.9165 201.03C45.4706 192.258 44.2332 187.72 42.4884 181.319L17.4035 188.156C18.9918 193.983 19.647 196.389 19.95 202.349L45.9165 201.03ZM46.4845 212.206L45.9165 201.03L19.95 202.349L20.5181 213.526L46.4845 212.206ZM31.3638 228.88C33.2815 228.782 38.4927 228.336 42.5386 223.932C46.6458 219.46 46.5841 214.164 46.4845 212.206L20.5181 213.526C20.5112 213.391 20.4676 212.533 20.7468 211.316C21.0559 209.968 21.7855 208.09 23.391 206.343C24.9865 204.606 26.7649 203.74 28.0079 203.33C29.1386 202.957 29.9444 202.918 30.044 202.913L31.3638 228.88ZM24.4531 229.231L31.3638 228.88L30.044 202.913L23.1333 203.265L24.4531 229.231ZM7.71968 214.176C7.81923 216.135 8.29482 221.41 12.8342 225.441C17.3058 229.413 22.5354 229.329 24.4531 229.231L23.1333 203.265C23.2329 203.26 24.0384 203.216 25.2011 203.472C26.4793 203.754 28.3363 204.435 30.0997 206.002C31.8741 207.578 32.7904 209.371 33.2345 210.681C33.6358 211.864 33.6793 212.722 33.6862 212.856L7.71968 214.176ZM5.53781 171.25L7.71968 214.176L33.6862 212.856L31.5043 169.93L5.53781 171.25ZM20.6585 154.576C18.7408 154.673 13.5296 155.12 9.48379 159.524C5.37658 163.995 5.43826 169.291 5.53781 171.25L31.5043 169.93C31.5111 170.064 31.5548 170.922 31.2756 172.14C30.9665 173.488 30.2368 175.365 28.6314 177.113C27.0359 178.85 25.2575 179.716 24.0144 180.126C22.8837 180.499 22.0779 180.537 21.9783 180.542L20.6585 154.576ZM28.7371 154.165L20.6585 154.576L21.9783 180.542L30.057 180.132L28.7371 154.165ZM42.9113 160.805C41.7623 159.2 39.7473 156.932 36.4341 155.478C33.3639 154.131 30.5016 154.075 28.7371 154.165L30.057 180.132C29.8657 180.141 28.1431 180.233 25.986 179.287C23.5858 178.234 22.2573 176.619 21.7748 175.945L42.9113 160.805ZM55.0438 177.812L42.9263 160.825L21.7598 175.924L33.8774 192.911L55.0438 177.812ZM60.9883 188.547C59.6134 185.465 58.1816 182.231 55.0601 177.835L33.8611 192.889C35.4301 195.098 36.0161 196.387 37.2441 199.14L60.9883 188.547ZM60.7465 188.035L60.7464 188.035L37.486 199.652L37.4861 199.652L60.7465 188.035ZM62.5636 191.978C61.9705 190.747 61.4933 189.679 60.9885 188.547L37.2441 199.14C37.7456 200.264 38.362 201.647 39.1383 203.259L62.5636 191.978ZM50.7364 184.608L50.1911 184.635L51.5109 210.602L52.0562 210.574L50.7364 184.608ZM34.4523 181.058C34.9046 189.958 36.4611 194.625 39.1916 202.068L63.601 193.114C61.2316 186.655 60.6775 184.828 60.4187 179.738L34.4523 181.058ZM33.8808 169.814L34.4523 181.058L60.4187 179.738L59.8472 168.494L33.8808 169.814ZM48.9339 153.143C47.0537 153.239 41.6957 153.676 37.6309 158.27C33.6252 162.797 33.7935 168.098 33.8808 169.814L59.8472 168.494C59.8502 168.553 59.8982 169.348 59.6526 170.502C59.3809 171.78 58.7067 173.686 57.1026 175.499C55.4898 177.322 53.6548 178.24 52.3539 178.675C51.1829 179.067 50.3453 179.105 50.2537 179.11L48.9339 153.143ZM55.917 152.788L48.9339 153.143L50.2537 179.11L57.2369 178.755L55.917 152.788ZM72.5829 167.847C72.483 165.882 72.0076 160.68 67.5661 156.661C63.1182 152.637 57.8885 152.688 55.917 152.788L57.2369 178.755C57.0953 178.762 56.2487 178.804 55.0468 178.531C53.7233 178.23 51.8654 177.518 50.122 175.941C48.3796 174.364 47.4884 172.589 47.0581 171.309C46.667 170.146 46.6234 169.305 46.6164 169.166L72.5829 167.847ZM50.8921 178.159L50.8972 178.164L68.3021 158.849L68.297 158.844L50.8921 178.159ZM93.8524 166.761L96.0342 209.687L122.001 208.368L119.819 165.441L93.8524 166.761ZM104.469 176.281C104.331 176.288 103.469 176.332 102.246 176.051C100.891 175.739 99.0123 175.004 97.2664 173.395C95.5333 171.798 94.6721 170.021 94.2652 168.784C93.8949 167.658 93.8573 166.857 93.8524 166.761L119.819 165.441C119.722 163.529 119.279 158.324 114.888 154.277C110.417 150.157 105.115 150.215 103.15 150.315L104.469 176.281ZM96.6658 176.678L104.469 176.281L103.15 150.315L95.346 150.712L96.6658 176.678ZM106.263 166.13C106.268 166.226 106.311 167.027 106.057 168.184C105.778 169.456 105.101 171.311 103.539 173.076C101.965 174.854 100.171 175.775 98.8546 176.223C97.6666 176.627 96.8038 176.671 96.6658 176.678L95.346 150.712C93.3808 150.811 88.0999 151.291 84.0703 155.843C80.1122 160.315 80.1992 165.538 80.2963 167.45L106.263 166.13ZM107.033 181.285L106.263 166.13L80.2963 167.45L81.0666 182.605L107.033 181.285ZM81.4288 195.603L94.7098 194.928L93.3899 168.961L80.109 169.636L81.4288 195.603ZM67.0154 168.125L67.7856 183.28L93.7521 181.96L92.9818 166.805L67.0154 168.125ZM77.6324 177.646C77.5446 177.65 76.6912 177.699 75.4657 177.42C74.0956 177.107 72.1561 176.357 70.3654 174.675C68.5972 173.014 67.7633 171.186 67.386 169.987C67.0441 168.9 67.0164 168.144 67.0154 168.125L92.9818 166.805C92.897 165.137 92.5543 159.845 88.1653 155.723C83.6344 151.467 78.1856 151.584 76.3126 151.679L77.6324 177.646ZM69.8964 178.039L77.6324 177.646L76.3126 151.679L68.5766 152.072L69.8964 178.039ZM79.4258 167.494C79.4305 167.587 79.476 168.403 79.214 169.581C78.9244 170.884 78.2253 172.761 76.6306 174.529C75.0349 176.299 73.237 177.19 71.9646 177.613C70.8142 177.996 69.9923 178.034 69.8964 178.039L68.5766 152.072C66.6666 152.169 61.3815 152.615 57.3216 157.118C53.2675 161.613 53.3625 166.91 53.4593 168.814L79.4258 167.494ZM81.6077 210.421L79.4258 167.494L53.4593 168.814L55.6412 211.74L81.6077 210.421ZM71.0548 200.829C71.1544 200.824 71.9599 200.78 73.1226 201.036C74.4008 201.318 76.2579 202 78.0213 203.566C79.7956 205.142 80.7119 206.935 81.1561 208.245C81.5573 209.428 81.6008 210.286 81.6077 210.421L55.6412 211.74C55.7407 213.699 56.2163 218.974 60.7557 223.006C65.2272 226.977 70.4568 226.893 72.3746 226.795L71.0548 200.829ZM78.7907 200.436L71.0548 200.829L72.3746 226.795L80.1106 226.402L78.7907 200.436ZM69.1972 211.051C69.1942 210.992 69.1463 210.198 69.3918 209.043C69.6635 207.765 70.3377 205.859 71.9418 204.046C73.5546 202.224 75.3896 201.306 76.6905 200.87C77.8615 200.478 78.6991 200.44 78.7907 200.436L80.1106 226.402C81.9908 226.307 87.3488 225.87 91.4136 221.276C95.4192 216.749 95.2509 211.448 95.1637 209.732L69.1972 211.051ZM68.3955 195.278L69.1972 211.051L95.1637 209.732L94.362 193.958L68.3955 195.278ZM93.9998 180.96L80.7188 181.635L82.0386 207.601L95.3196 206.926L93.9998 180.96ZM108.445 209.057L107.643 193.283L81.6765 194.603L82.4782 210.376L108.445 209.057ZM97.8242 199.468C97.9658 199.461 98.8124 199.419 100.014 199.692C101.338 199.994 103.196 200.705 104.939 202.282C106.682 203.859 107.573 205.634 108.003 206.914C108.394 208.077 108.438 208.918 108.445 209.057L82.4782 210.376C82.5781 212.341 83.0534 217.543 87.495 221.562C91.9429 225.586 97.1725 225.535 99.144 225.435L97.8242 199.468ZM105.628 199.072L97.8242 199.468L99.144 225.435L106.948 225.038L105.628 199.072ZM96.0342 209.687C96.0272 209.549 95.9853 208.707 96.2563 207.511C96.5547 206.194 97.2613 204.338 98.8348 202.593C100.409 200.846 102.185 199.95 103.472 199.517C104.64 199.123 105.486 199.079 105.628 199.072L106.948 225.038C108.919 224.938 114.127 224.459 118.144 220.004C122.155 215.556 122.101 210.333 122.001 208.368L96.0342 209.687Z" fill="white" mask="url(#path-1-outside-1_712_2475)"/>
<g clip-path="url(#clip0_712_2475)">
<path d="M116.593 91.2103C118.128 121.415 137.662 146.46 164.286 156.502C173.524 160.004 183.616 161.681 194.097 161.148L196.585 210.089C196.585 210.089 266.851 137.534 264.115 83.7162C262.046 43.0081 227.355 11.678 186.605 13.7494C145.874 15.8199 114.519 50.5072 116.588 91.2106L116.593 91.2103Z" fill="#822281"/>
<path d="M186.605 13.7494C145.859 15.8206 114.519 50.5072 116.588 91.2106C119.324 145.033 196.585 210.084 196.585 210.084L194.097 161.143C204.578 160.611 214.453 157.919 223.283 153.499C248.752 140.809 265.645 113.911 264.11 83.7068C262.046 43.008 227.34 11.6787 186.605 13.7494Z" fill="#EC631A"/>
<path d="M174.168 107.656L172.018 65.3496C171.846 61.979 174.376 59.5441 176.873 60.6747L218.011 79.3204C221.165 80.7478 221.477 86.3203 218.512 88.1218L179.525 111.787C177.154 113.228 174.341 111.06 174.168 107.661L174.168 107.656Z" fill="#822281"/>
<path d="M98.538 108.626L54.3945 110.87C50.8798 111.049 48.3353 108.415 49.5154 105.816L68.9756 62.9745C70.4662 59.6943 76.2815 59.3598 78.1591 62.4494L102.847 103.047C104.348 105.515 102.087 108.446 98.538 108.626Z" fill="#822281"/>
<path d="M161.904 209.939L117.761 212.183C114.246 212.361 111.702 209.728 112.882 207.129L132.342 164.287C133.832 161.007 139.648 160.672 141.525 163.762L166.214 204.359C167.714 206.827 165.453 209.758 161.904 209.939Z" fill="#822281"/>
<path d="M54.1064 78.5246C54.6581 89.3772 48.0222 95.8467 37.362 96.3886L28.9027 96.8186L29.4999 108.567C29.6082 110.698 28.9582 111.488 26.7573 111.6L18.9912 111.995C16.7904 112.107 15.9957 111.39 15.8874 109.259L13.7014 66.2554C13.5931 64.1246 14.3109 63.3307 16.5118 63.2188L35.4907 62.2541C46.2188 61.7087 53.5513 67.6042 54.1064 78.5246Z" fill="#822281"/>
<path d="M29.9947 118.214L31.7165 152.084L48.2909 151.241C50.4239 151.133 51.2151 151.782 51.3269 153.981L51.6447 160.233C51.753 162.364 51.0351 163.157 48.9021 163.266L21.6675 164.65C19.4666 164.762 18.672 164.045 18.5637 161.914L16.3777 118.911C16.2694 116.78 16.9872 115.986 19.1881 115.874L26.959 115.479C29.1599 115.367 29.8867 116.088 29.995 118.218L29.9947 118.214Z" fill="#822281"/>
<path d="M56.254 113.99L64.3692 113.578C66.4343 113.473 67.1528 114.126 67.2574 116.184L69.4574 159.463C69.5623 161.526 68.9086 162.244 66.8484 162.349L58.7332 162.762C56.6681 162.867 55.9496 162.214 55.845 160.155L53.6449 116.876C53.5401 114.813 54.1937 114.095 56.254 113.99Z" fill="#822281"/>
<path d="M59.7945 168.815L61.9805 211.819C62.0888 213.95 61.371 214.744 59.238 214.852L51.4671 215.247C50.0224 215.321 49.2453 214.947 48.5758 214.015L37.1558 198.272C33.8898 193.685 32.5573 190.514 30.3865 184.429L29.8387 184.457C31.6186 190.98 32.6207 194.439 33.0085 202.066L33.5776 213.263C33.6859 215.394 32.9681 216.187 30.7672 216.299L23.8252 216.652C21.6244 216.764 20.8297 216.047 20.7214 213.916L18.5354 170.913C18.4271 168.782 19.1449 167.988 21.3458 167.876L29.4609 167.464C31.0413 167.383 31.7506 167.76 32.4201 168.692L44.59 185.708C47.856 190.295 48.5413 192.877 51.0076 197.986L51.5554 197.958C48.9949 190.995 47.9352 187.742 47.579 180.734L47.0064 169.47C46.8981 167.339 47.5481 166.549 49.749 166.437L56.7637 166.081C58.8967 165.972 59.6913 166.689 59.7996 168.82L59.7945 168.815Z" fill="#822281"/>
<path d="M107.249 166.403L109.435 209.407C109.544 211.538 108.826 212.332 106.693 212.44L98.8539 212.838C96.7209 212.947 95.9262 212.23 95.8179 210.099L95.0146 194.297L81.6737 194.975L82.4769 210.777C82.5852 212.908 81.9352 213.699 79.7344 213.81L71.9634 214.205C69.7626 214.317 68.9679 213.6 68.8596 211.469L66.6736 168.466C66.5618 166.267 67.2797 165.473 69.4806 165.361L77.2515 164.966C79.4524 164.855 80.1792 165.575 80.2909 167.774L81.0627 182.956L94.4037 182.277L93.6319 167.095C93.5201 164.897 94.238 164.103 96.371 163.994L104.21 163.596C106.343 163.488 107.137 164.205 107.249 166.403Z" fill="#822281"/>
</g>
<defs>
<clipPath id="clip0_712_2475">
<rect width="249.69" height="196.588" fill="white" transform="translate(11 22.6758) rotate(-2.91)"/>
</clipPath>
</defs>
</svg>
